<svg width="75" height="118" viewBox="0 0 75 118" fill="none" xmlns="http://www.w3.org/2000/svg">
<path fill-rule="evenodd" clip-rule="evenodd" d="M51.2736 11.3125C51.5029 10.827 51.6779 10.3043 51.7985 9.97607C52.1893 8.92429 52.4525 7.76632 52.5252 6.60322C52.5971 5.43053 52.4772 4.25336 52.092 3.17343C51.8846 2.58932 51.5784 1.98475 51.1304 1.50684C50.8143 1.16969 50.4298 0.893945 49.9621 0.726326C49.1748 0.440991 48.3493 0.554871 47.5712 0.882431C46.8445 1.18824 46.1595 1.68341 45.6007 2.18307C45.5965 2.06343 45.2896 1.81777 45.2614 1.7877C45.1245 1.64119 44.9693 1.51132 44.7993 1.39808C44.6377 1.28996 44.4649 1.19528 44.2871 1.11275C43.679 0.83125 42.9918 0.648278 42.2927 0.579183C41.5914 0.510088 40.8781 0.552947 40.2206 0.723124C38.943 1.05004 37.8071 1.70197 36.8427 2.53175C35.8938 3.34873 35.1086 4.33716 34.5315 5.36143C33.469 7.19308 32.8806 9.1834 32.6542 11.2166C32.6133 11.5819 32.5836 11.9491 32.566 12.3163C32.554 12.3055 32.5434 12.2952 32.5342 12.2856L31.9155 11.7425C31.663 11.5371 31.404 11.3388 31.1402 11.1449C30.7486 10.8583 30.3472 10.5819 29.9415 10.3107C28.8925 9.60628 27.7411 8.98443 26.5192 8.55514C25.2796 8.1201 23.9681 7.88212 22.6114 7.96017C21.8629 8.00111 21.0594 8.16297 20.3151 8.44255C19.5588 8.72724 18.8638 9.13349 18.3446 9.66194C18.018 9.99014 17.6208 10.4201 17.3929 10.9664C17.3386 10.969 17.2807 10.9651 17.2215 10.9581C16.8405 10.9114 16.4101 10.7707 16.039 10.7623C15.5 10.7508 14.9568 10.7783 14.4157 10.8334C13.8831 10.8871 13.3525 10.9671 12.8326 11.0605C12.3345 11.15 11.8414 11.2588 11.3616 11.4021C10.8727 11.548 10.3972 11.7284 9.94639 11.9632C8.76116 12.5793 7.66904 13.4865 7.40589 14.4954C7.22246 15.1998 7.40802 15.9656 8.24614 16.7352C8.41053 16.8881 8.5869 17.0301 8.77033 17.1638C9.03841 17.359 9.32272 17.5362 9.61057 17.7064C11.7905 19.0121 14.9018 19.8304 17.2391 21.2999C17.9721 21.7606 18.6254 22.289 19.1383 22.923C19.0035 22.8949 18.8695 22.8674 18.7348 22.8411C16.3763 22.3722 13.9748 22.0907 11.6092 22.0613C9.54002 22.0267 7.30007 22.289 5.37336 23.0804C4.05691 23.621 2.8872 24.4079 2.00745 25.5121C1.56087 26.0713 1.14885 26.7507 0.9365 27.4596C0.78623 27.9618 0.738251 28.4794 0.838431 28.9835C1.07689 30.1856 2.12455 30.8491 3.25617 30.9546C3.92356 31.0167 4.61707 30.8798 5.19064 30.5452C5.02485 31.1127 5.00792 31.7096 5.19135 32.2284C5.40017 32.8208 5.85945 33.3199 6.64679 33.5822C7.16603 33.7562 7.71138 33.8694 8.26943 33.95C8.28636 33.991 8.30399 34.0268 8.30823 34.0402C8.34491 34.1618 8.38795 34.2821 8.43804 34.3998C8.48672 34.5156 8.54104 34.6295 8.6003 34.7408C8.71883 34.9634 8.85075 35.1784 8.99397 35.3876C9.2028 35.6927 9.4335 35.9858 9.67125 36.2737C10.1362 36.8379 10.6582 37.3325 11.2226 37.7809C12.0572 38.4425 12.9842 39.0035 13.9564 39.5384C15.3985 40.3374 16.88 41.0725 18.3199 41.8703C19.2702 42.3962 20.2015 42.9509 21.0953 43.5606C23.2132 45.0263 25.0066 46.6583 27.121 47.7824C28.5623 48.5488 30.1504 49.0837 32.0827 49.1822C32.6951 49.2136 33.3209 49.2264 33.9339 49.1617C34.3629 49.1163 34.7848 49.0325 35.194 48.8943C35.3379 48.8444 35.4395 48.7376 35.4797 48.6128C35.5439 48.6237 35.6074 48.6333 35.6716 48.6423C36.7552 48.7913 37.8643 48.6653 38.9472 48.1221C39.0911 48.0492 39.1772 47.918 39.1899 47.7786C39.2372 47.7562 39.2738 47.7274 39.3028 47.6954C39.9716 47.8745 40.6891 47.9551 41.482 47.9219C41.7974 47.9091 42.117 47.886 42.4338 47.847C42.608 47.8253 42.7816 47.799 42.953 47.7664C42.4055 48.6691 41.7424 49.4132 41.2648 50.3255C41.0284 50.7765 40.8337 51.2653 40.7145 51.8277C40.3928 53.3311 40.397 54.8467 40.591 56.3546C40.6002 56.4237 40.6093 56.4928 40.6192 56.5619C40.2241 55.6656 39.9384 54.7232 39.7642 53.7636C39.4347 51.946 39.5081 50.067 39.9991 48.3204C40.0619 48.0888 39.906 47.8547 39.6506 47.7978C39.3959 47.7402 39.1377 47.8822 39.0742 48.1138C38.586 49.9749 38.5415 51.971 38.9239 53.8947C39.2802 55.6886 40.0054 57.4211 41.0856 58.9227C41.4164 60.2636 41.8383 61.5866 42.2517 62.8764C42.7802 64.5443 43.3417 66.2026 43.9096 67.8589C44.7598 70.3412 45.6318 72.8171 46.508 75.2936C47.0061 76.7139 47.4752 78.1412 47.8661 79.5845C48.2548 81.0215 48.5666 82.4744 48.7599 83.9516C48.7797 84.1006 48.7973 84.2497 48.8143 84.3994C48.8291 84.6867 48.8418 84.9739 48.8531 85.2612C48.8298 85.1684 48.8065 85.075 48.7825 84.9823C48.0502 82.1545 46.8586 79.4124 45.2508 76.6685C44.2144 74.8982 42.9982 73.1939 41.566 71.6674C40.1247 70.1314 38.4646 68.775 36.5464 67.7118C34.6274 66.6465 32.5716 65.8539 30.6612 64.8168C29.8632 64.3831 29.0907 63.9064 28.3662 63.3466C27.9358 63.014 27.533 62.657 27.1492 62.2833C26.7619 61.9065 26.3936 61.5137 26.0359 61.1119C25.9823 61.0512 25.3149 60.2598 25.0327 59.9571C24.9657 59.8861 24.9142 59.8369 24.8874 59.8158C24.675 59.6494 24.4838 59.7723 24.4351 59.8119C24.3477 59.8829 24.2687 60.0423 24.3032 60.2604C24.3448 60.5234 24.536 60.9494 24.5685 61.0377C24.7484 61.531 24.9579 62.0127 25.1886 62.4861C25.4193 62.957 25.6712 63.4196 25.9379 63.8757C27.0293 65.7426 28.3471 67.5128 29.8054 69.1858C31.2601 70.8537 32.8545 72.4243 34.5082 73.8945C37.0473 76.1541 39.6167 78.3325 41.8087 80.7931C43.25 82.4104 44.527 84.1512 45.5238 86.1191C46.4417 87.9309 47.1401 89.8374 47.5888 91.79C48.0368 93.7394 48.235 95.7342 48.1539 97.727C48.1327 98.2408 48.0925 98.7564 48.0382 99.2714L47.8865 100.079C47.8329 99.6738 47.7708 99.2695 47.6989 98.8639C47.44 97.4078 47.054 95.9382 46.4466 94.4047C45.3566 91.6454 43.679 89.2655 41.7318 87.0583C38.8449 83.7859 35.3612 80.8954 32.343 77.696C31.7645 77.0818 31.2136 76.449 30.6851 75.801C30.1546 75.1516 29.6467 74.4875 29.1542 73.8132C29.09 73.7256 28.6216 72.9463 28.3683 72.693C28.1806 72.5043 27.9718 72.5068 27.8773 72.5394C27.7023 72.6002 27.5167 72.8452 27.4518 73.231C27.3898 73.2541 27.3263 73.286 27.2628 73.3295C26.9862 73.5176 26.6236 73.9821 26.5608 74.0659C26.201 74.5509 25.911 75.0819 25.6811 75.634C25.4546 76.1778 25.2867 76.7427 25.1653 77.3038C24.7173 79.3664 24.5861 81.5269 24.7907 83.6573C24.996 85.7903 25.5378 87.8938 26.4444 89.8374C27.5224 92.1585 29.1923 94.0522 31.2044 95.6228C33.1029 97.1039 35.3075 98.299 37.618 99.2785C41.8334 104.618 46.3196 109.943 48.3867 114.989C48.4065 115.149 48.4298 115.309 48.4573 115.468C48.4777 115.782 48.513 116.124 48.5779 116.377C48.6188 116.537 48.683 116.669 48.7564 116.771C48.7486 116.815 48.7402 116.859 48.7324 116.903C48.6908 117.138 48.8686 117.36 49.1282 117.397C49.1402 117.399 49.1522 117.4 49.1642 117.4C49.2827 117.459 49.4266 117.471 49.5614 117.424C49.6242 117.402 49.6785 117.37 49.7236 117.329C49.9487 117.259 50.0792 117.054 50.0192 116.852V116.846C49.96 116.631 49.8944 116.417 49.8245 116.201C50.1279 114.661 50.5695 113.102 51.1537 111.59C51.8444 109.804 52.7326 108.085 53.8219 106.542C55.1778 104.63 56.7144 102.852 58.2425 101.082C59.8009 99.2772 61.3446 97.4788 62.666 95.5448C63.794 93.8942 64.7655 92.147 65.4407 90.211C65.9648 88.7166 66.5617 86.922 66.786 85.1575C66.942 83.9279 66.9159 82.7117 66.573 81.6132C66.4919 81.3535 65.9952 80.2185 65.4216 79.5781C65.016 79.1245 64.5362 78.9365 64.1256 79.0631C64.1263 78.2487 64.0995 77.4343 64.0494 76.6224C64.0367 76.4119 64.065 75.2156 63.909 74.5477C63.8187 74.1619 63.6092 73.9303 63.4229 73.8804C63.2621 73.8375 63.1118 73.8734 62.9891 74.0058C62.9277 74.0717 62.8677 74.1926 62.831 74.3372C62.7781 74.5502 62.7605 74.8311 62.7555 74.8752C62.7033 75.3154 62.6462 75.7549 62.5813 76.1938C62.5164 76.6314 62.4437 77.0683 62.3612 77.504C62.1312 78.7119 61.8377 79.8724 61.4264 80.9946C61.0186 82.1097 60.493 83.1871 59.7988 84.2382C57.2054 88.1638 53.9905 91.9307 51.4514 95.9856C50.609 97.3316 49.8408 98.7091 49.1924 100.134C49.2136 100.017 49.2326 99.9003 49.2503 99.7826C49.421 98.6432 49.4471 97.4231 49.4654 96.26C49.6601 95.3874 49.8866 94.5256 50.1392 93.6696C50.5314 92.337 50.9858 91.0184 51.4761 89.6948C52.8201 86.0769 54.4752 82.484 55.5644 78.7855C56.2974 76.2955 56.7765 73.7569 56.7292 71.1287C56.713 70.1441 56.6481 69.1167 56.4456 68.1219C56.3087 67.4456 56.1077 66.7841 55.8163 66.1603C55.6406 65.7829 55.405 65.3881 55.0861 65.0791C54.8519 64.8533 54.5739 64.6735 54.2437 64.5699C53.7421 64.4131 53.2603 64.4528 52.8144 64.6108C52.2056 64.8271 51.6659 65.2762 51.2546 65.7221C50.5307 66.5064 50.0122 67.4092 49.6397 68.3643C49.2728 69.3041 49.0478 70.2964 48.9067 71.2759C48.743 72.4057 48.6887 73.5432 48.7014 74.6865C48.5539 72.9047 48.4058 71.1038 48.0855 69.3438C47.756 67.5352 47.2481 65.7681 46.3598 64.1105C46.0304 63.4906 45.6169 62.9263 45.1612 62.3883C44.1389 61.1804 42.8959 60.1126 41.9484 58.8465C41.8948 58.7742 41.8418 58.7019 41.7903 58.629C41.6133 57.8485 41.4693 57.0628 41.3797 56.2759C41.2168 54.8435 41.2358 53.4053 41.5646 51.9838C41.6782 51.4943 41.856 51.0702 42.069 50.6793C42.6398 49.6333 43.4518 48.815 44.0536 47.7139C44.0768 47.6704 44.0917 47.6244 44.098 47.579C44.1954 47.5642 44.3245 47.5457 44.3717 47.5399L45.2353 47.4261C45.7072 47.3576 46.1828 47.277 46.6526 47.1765C47.1288 47.0748 47.5994 46.9533 48.0551 46.8036C49.3751 46.3711 50.5498 45.682 51.5897 44.8427C52.6126 44.0174 53.5051 43.0475 54.2762 42.0399C54.9972 41.1007 55.5165 40.1027 55.9122 39.0682C57.4573 35.0293 57.0396 30.4153 59.5632 26.6759C60.0662 25.9357 60.6722 25.372 61.3566 24.9152C62.424 24.2026 63.6762 23.747 65.0153 23.2826C65.7031 23.0452 66.58 22.7074 67.1896 22.1994C67.2023 22.2026 67.2157 22.2058 67.2298 22.2084C67.3427 22.2301 67.8344 22.1617 68.027 22.1086C68.257 22.0453 68.4785 21.9499 68.6831 21.8303C68.8807 21.7151 69.0641 21.5789 69.2257 21.4304C69.704 20.9916 69.9312 20.4209 69.9636 19.824C69.9777 19.5566 69.953 19.2847 69.8966 19.0192C70.2677 18.9545 70.7446 18.7837 70.897 18.739C71.6991 18.5016 72.4258 18.1721 72.9909 17.7057C73.5814 17.2182 74.0026 16.5855 74.1528 15.75C74.3341 14.741 74.1013 13.759 73.6103 12.8614C72.9062 11.5742 71.6716 10.4623 70.4419 9.71376C68.4334 8.48733 66.1356 7.98319 63.7912 7.95376C61.4892 7.92561 59.1406 8.35489 56.9867 9.01385C55.0466 9.59988 53.0924 10.3574 51.2736 11.3125ZM69.6172 18.215C69.6144 18.2079 69.6109 18.2015 69.6073 18.1945C69.0232 17.0276 68.0108 16.1325 66.7931 15.4691C65.0442 14.5159 62.872 14.0399 61.0116 13.9029C59.1646 13.7609 57.3493 13.9682 55.6004 14.4378C53.0486 15.1236 50.6401 16.3795 48.4975 17.9866C44.9284 20.664 42.0986 24.3081 40.5974 27.8575C40.5776 27.9042 40.5677 27.9522 40.567 27.9996C40.5332 28.0168 40.4993 28.0335 40.4654 28.0495C40.3786 28.0917 40.2919 28.1333 40.2037 28.1736C40.2566 27.37 40.4682 26.571 40.7596 25.7866C41.2259 24.5314 41.894 23.3133 42.4697 22.1713C43.1604 20.8048 43.8687 19.4011 44.7132 18.08C45.2713 17.208 45.8879 16.3718 46.5976 15.6066C47.9437 14.1563 49.6065 12.951 51.4225 11.9613C53.2497 10.9645 55.2314 10.1853 57.197 9.58197C59.2824 8.94988 61.5534 8.53211 63.7799 8.5705C65.9874 8.60889 68.1484 9.09702 70.0292 10.2646C70.9661 10.8481 71.9072 11.6612 72.5605 12.6061C73.1912 13.5185 73.5532 14.5562 73.3465 15.6258C73.2209 16.2733 72.8893 16.7627 72.4258 17.1357C71.9404 17.5259 71.3153 17.7902 70.6317 17.9834C70.4793 18.0263 69.6892 17.9853 69.6172 18.215ZM39.4022 27.1244C39.3902 26.9414 39.3818 26.7571 39.3768 26.5735C39.3655 26.2044 39.3649 25.8352 39.3705 25.4693C39.3895 24.4156 39.5532 23.3696 39.8446 22.3517C40.1127 21.4151 40.488 20.5028 40.9339 19.625C41.5921 19.641 42.4493 19.3909 43.1802 18.9725C43.2183 18.9507 43.2564 18.9283 43.2931 18.9059C42.723 19.8752 42.2031 20.8681 41.6937 21.8437C41.0877 23.0024 40.3885 24.2397 39.8933 25.516C39.688 26.0464 39.5179 26.5831 39.4022 27.1244ZM44.728 16.7147C44.6899 16.5637 44.6215 16.4243 44.5255 16.3085C44.292 16.0263 43.9153 15.8549 43.4158 15.9732C43.1957 16.0251 42.9812 16.1249 42.7816 16.2541C42.5226 16.4223 42.2877 16.6373 42.0951 16.828C41.9646 16.9566 41.8404 17.0896 41.7212 17.2265C41.6034 17.3634 41.4905 17.5042 41.3833 17.6481C41.209 17.8823 41.046 18.1235 40.8922 18.3692C40.7857 18.5406 40.6827 18.714 40.5854 18.8893C40.5141 18.9545 40.4654 19.0403 40.452 19.1369C39.9292 20.1151 39.4996 21.14 39.18 22.1898C38.8562 23.2538 38.6467 24.3446 38.5973 25.4488C38.5789 25.8243 38.5676 26.2031 38.5662 26.5825C38.5662 26.6305 38.5662 26.6791 38.5662 26.7271C38.4844 26.5115 38.4096 26.292 38.3426 26.0707C38.2128 25.6407 38.1119 25.2051 38.047 24.7726C37.9546 24.1443 37.9574 23.5231 38.0124 22.9057C38.1352 21.52 38.4865 20.1535 38.4929 18.7543C38.5465 18.6577 38.5599 18.5419 38.5204 18.4306C38.5112 18.4043 38.4992 18.3794 38.4851 18.3564C38.4696 17.8433 38.3588 16.7889 37.8974 16.1984C37.6237 15.8491 37.2399 15.6425 36.7235 15.677C36.2331 15.7103 35.8472 15.9931 35.6187 16.3693C35.4 16.7288 35.3421 17.1741 35.4642 17.5432C35.6158 18.0026 36.013 18.437 36.5076 18.7185C36.9027 18.9424 37.3577 19.062 37.8001 19.039C37.7464 20.5431 37.3358 22.012 37.2688 23.5122C37.2491 23.9562 37.2554 24.4022 37.3097 24.8538C37.3634 25.317 37.4551 25.786 37.5764 26.2485C37.6985 26.7104 37.8516 27.1653 38.0293 27.6023C38.1048 27.7871 38.1874 27.972 38.2847 28.1493C38.3539 28.2747 38.4315 28.3962 38.5183 28.5126C38.5302 28.5286 38.5994 28.6508 38.6678 28.7218C38.6636 28.7231 38.6586 28.7244 38.6544 28.725C38.6466 28.7129 38.6382 28.7001 38.629 28.6886C38.5556 28.5952 38.4463 28.5383 38.3299 28.5229C38.3518 28.3789 37.7895 28.2779 37.7394 28.2523C37.3648 28.0635 36.9986 27.8511 36.6466 27.6208C36.2924 27.3879 35.9524 27.1384 35.6314 26.8774C34.7262 26.1359 33.8761 25.2946 33.1459 24.374C32.5448 23.6165 32.0263 22.8072 31.6051 21.973C32.2584 21.607 32.6055 21.0319 32.6859 20.3979C32.7671 19.7632 32.5822 19.071 32.1843 18.5169C31.9614 18.2047 31.6199 18.0173 31.2933 17.9955C30.925 17.9706 30.5476 18.1177 30.3437 18.556C30.1518 18.9686 30.1066 19.4216 30.1581 19.879C30.2287 20.5034 30.4749 21.1374 30.719 21.6633C30.7239 21.6735 30.7282 21.6838 30.7324 21.6934C30.7345 21.7522 30.75 21.8117 30.7797 21.868C30.803 21.9109 30.8326 21.9487 30.8672 21.9813C31.3285 22.9365 31.9205 23.8583 32.5935 24.7291C33.3399 25.6951 34.1879 26.5985 35.1086 27.3892C35.4007 27.6426 35.7097 27.887 36.03 28.1186C35.9234 28.1006 35.7816 28.1058 35.6427 28.1186C35.4049 28.0527 35.1672 27.9791 34.935 27.8966C34.4504 27.7238 33.9854 27.5114 33.5784 27.235C32.9879 26.8294 32.4849 26.3528 32.0305 25.8384C30.9151 24.5787 30.0551 23.1194 28.7754 21.9909C28.3902 21.6422 27.6536 21.0504 26.9129 20.7715C26.2843 20.5348 25.6542 20.5271 25.1555 20.9103C24.8112 21.1752 24.7061 21.5206 24.7477 21.8693C24.802 22.3191 25.1435 22.7778 25.5343 23.0279C25.9978 23.3248 26.6306 23.525 27.2677 23.5692C27.9083 23.614 28.5489 23.4918 29.047 23.1796C29.9246 24.145 30.6336 25.2434 31.4859 26.23C31.9698 26.7904 32.4961 27.3182 33.1233 27.768C33.1657 27.7987 33.2087 27.8287 33.2524 27.8582C33.124 27.8268 32.9963 27.7936 32.8686 27.7584C32.1067 27.5492 31.3631 27.283 30.6647 26.997C29.4674 26.5057 28.3238 25.9299 27.1471 25.4085C26.6349 25.1814 26.117 24.9639 25.5851 24.7681C23.9364 24.1603 22.2143 23.6383 20.4569 23.2179C20.4491 23.2007 20.4406 23.1834 20.4301 23.1668C19.7803 22.1252 18.8286 21.3223 17.7167 20.6582C15.3321 19.2341 12.1948 18.4626 9.97602 17.1933C9.74955 17.0615 9.52521 16.9258 9.31074 16.7793C9.10121 16.6367 8.90084 16.4844 8.7167 16.3155C8.08811 15.734 7.91385 15.1665 8.05707 14.638C8.29059 13.7769 9.27828 13.0457 10.2998 12.5319C10.7104 12.3259 11.1429 12.1692 11.5874 12.0451C12.0403 11.919 12.5059 11.8282 12.9751 11.754C13.4753 11.6746 13.9846 11.6081 14.4968 11.5678C15.0006 11.5281 15.5064 11.5141 16.008 11.5365C16.3502 11.5518 16.741 11.6996 17.0916 11.7514C17.1319 11.7572 17.1721 11.7623 17.2116 11.7655C17.1876 12.3202 17.3626 12.9644 17.8853 13.7072C18.8942 15.1409 21.2964 16.9943 26.3865 19.3186C26.6229 19.4235 26.9079 19.3346 27.0236 19.1209C27.1393 18.9066 27.042 18.6475 26.8056 18.5425C22.9973 16.899 20.7073 15.5088 19.3979 14.3284C18.2571 13.2997 17.8846 12.4616 17.9136 11.7732C17.946 11.008 18.4645 10.4527 18.842 10.0637C19.2956 9.60052 19.9059 9.24546 20.5683 8.99851C21.2428 8.74644 21.9716 8.60697 22.6502 8.5737C23.9039 8.5174 25.1124 8.75347 26.249 9.17188C27.3996 9.59605 28.4762 10.2089 29.4562 10.8935C29.7807 11.1206 30.1031 11.3509 30.4192 11.5883C30.7317 11.8231 31.0372 12.0655 31.3335 12.3176L31.8697 12.809C31.912 12.8544 31.9896 13.0022 32.0601 13.0405C32.1356 13.1896 32.3078 13.2875 32.4983 13.2747C32.5145 13.2734 32.53 13.2715 32.5448 13.2696C32.5498 14.6259 32.7028 15.9847 32.9787 17.3116C33.0309 17.5451 33.2828 17.6968 33.5403 17.6494C33.7978 17.6021 33.9643 17.3737 33.9121 17.1402C33.4549 15.2254 33.2546 13.2357 33.4253 11.2793C33.596 9.32606 34.1336 7.40804 35.1192 5.63589C35.6688 4.67496 36.4074 3.74347 37.3104 2.98407C38.1994 2.23682 39.2477 1.6591 40.4181 1.37953C40.9854 1.24581 41.597 1.22343 42.1967 1.29636C42.7943 1.36866 43.3784 1.53883 43.8927 1.79218C44.0275 1.85807 44.1573 1.93357 44.2786 2.01994C44.3922 2.09991 44.4959 2.19075 44.5855 2.29247C44.6137 2.32446 44.776 2.59636 44.8536 2.69809C44.8882 2.74351 44.9263 2.77934 44.9651 2.80685C44.9524 2.82092 44.9397 2.83499 44.927 2.84907C43.4793 4.41905 42.56 6.27757 42.0471 8.2391C41.5371 10.1897 41.432 12.2428 41.6281 14.2164C41.6542 14.4531 41.8884 14.6265 42.1501 14.6022C42.4112 14.5785 42.6024 14.3661 42.5756 14.1294C42.3406 12.2447 42.3844 10.2761 42.831 8.39968C43.2754 6.53221 44.1164 4.75622 45.4596 3.24573C46.0184 2.62324 46.8868 1.83376 47.8498 1.42495C48.4566 1.16712 49.1007 1.0622 49.7152 1.28612C50.1702 1.4531 50.5194 1.75571 50.7911 2.11398C51.0796 2.49336 51.2807 2.93672 51.426 3.36408C51.7675 4.37299 51.8613 5.46956 51.7724 6.55908C51.6835 7.65564 51.4077 8.74387 51.0175 9.72975C50.8806 10.0752 50.6775 10.6523 50.4073 11.1468C50.2506 11.4328 50.0785 11.6938 49.8683 11.8269C49.7265 11.919 49.6623 12.0726 49.6877 12.2191C48.3303 13.0655 47.0844 14.0411 46.0226 15.1633C45.557 15.6546 45.128 16.1748 44.728 16.7147ZM67.6341 22.0766C67.6214 22.0875 67.6065 22.0977 67.5896 22.108C67.6058 22.0984 67.6207 22.0881 67.6341 22.0766ZM67.8633 21.3178C67.9445 21.1137 67.9875 20.893 67.9847 20.6538C67.9706 19.4791 67.1169 18.7876 65.9529 18.4235C64.4459 17.9533 62.4056 18.055 61.3297 18.2457C59.463 18.5764 57.6464 19.3218 55.9891 20.3045C54.3461 21.2795 52.8596 22.4899 51.6391 23.7624C51.1022 24.3215 50.5632 24.9037 50.1138 25.532C49.9466 25.7655 49.7914 26.0054 49.6531 26.253C49.4337 26.024 49.1472 25.8231 48.7825 25.6586C48.3169 25.4475 47.8005 25.3548 47.2735 25.3464C46.5221 25.3349 45.7489 25.4962 45.0829 25.715C43.9209 26.0956 42.8973 26.7072 41.8609 27.2984C43.3283 24.1168 45.8335 20.9097 48.9681 18.4965C51.0147 16.9207 53.3273 15.6796 55.7888 15.0117C57.4559 14.56 59.1914 14.3764 60.953 14.5178C62.7104 14.6649 64.7634 15.1255 66.4051 16.0468C67.4767 16.6482 68.3706 17.4485 68.8715 18.4913C69.0599 18.8835 69.165 19.341 69.1332 19.7811C69.1043 20.1893 68.9526 20.5821 68.6196 20.8777C68.4997 20.9839 68.3642 21.0811 68.2189 21.163C68.106 21.2257 67.9868 21.2788 67.8633 21.3178ZM45.4279 46.5937C46.1665 46.0192 46.8734 45.3199 47.4336 44.5426C48.0135 43.7365 48.4361 42.8479 48.5814 41.9298C48.6626 41.4193 48.6675 40.9081 48.6273 40.397C48.5384 39.2588 48.2238 38.1213 48.0805 36.9985C47.9916 36.2967 47.9825 35.6032 48.0558 34.9167C48.1292 34.2302 48.2844 33.5515 48.5243 32.8791C48.9652 31.6462 50.3628 29.4218 50.2619 27.7257C50.2521 27.5696 50.2316 27.4167 50.197 27.2696C50.209 27.2504 50.2189 27.2306 50.2274 27.2095C50.3988 26.7802 50.633 26.3765 50.9025 25.9907C51.3216 25.3912 51.826 24.8346 52.3276 24.2991C53.4811 23.067 54.8893 21.8904 56.4534 20.9397C58.0104 19.9935 59.7198 19.27 61.4835 18.9398C62.4663 18.7562 64.3323 18.6391 65.7158 19.0575C66.5793 19.3192 67.2545 19.7952 67.2742 20.664C67.2827 21.0933 67.0605 21.4336 66.7409 21.7119C66.1991 22.1828 65.3934 22.4848 64.7697 22.7048C63.3743 23.1943 62.0733 23.6837 60.9615 24.4303C60.2136 24.9325 59.5498 25.5499 58.9995 26.3618C56.4315 30.1249 56.8118 34.7811 55.2209 38.8481C54.8399 39.8224 54.3404 40.761 53.6518 41.6426C52.9047 42.5977 52.044 43.5171 51.0591 44.2963C50.0891 45.0634 48.997 45.6929 47.7722 46.0806C47.3454 46.2163 46.9052 46.3244 46.46 46.4146C46.1179 46.4843 45.7722 46.5426 45.4279 46.5937ZM48.3268 78.5193C47.9761 77.3716 47.5846 76.2328 47.1733 75.0985C46.2858 72.6284 45.3884 70.1621 44.5425 67.6811C43.9788 66.0285 43.4419 64.369 42.9276 62.7024C42.6842 61.9052 42.4359 61.0953 42.2087 60.2758C42.996 61.1209 43.8589 61.9116 44.6088 62.7773C45.0413 63.2769 45.4342 63.8021 45.7489 64.3805C46.6131 65.9825 47.1168 67.69 47.4308 69.4417C47.907 72.0942 47.9564 74.8445 48.223 77.4778C48.2576 77.8245 48.2922 78.1719 48.3268 78.5193ZM49.6136 92.7151C49.6185 92.5897 49.622 92.4637 49.6256 92.3383C50.2464 90.426 50.4559 88.4856 50.4496 86.5286C50.4341 81.4936 48.9681 76.355 49.6411 71.3603C49.7674 70.425 49.972 69.4775 50.3155 68.5786C50.6535 67.6932 51.1255 66.8551 51.79 66.1258C52.0743 65.8142 52.4271 65.495 52.8306 65.2915C53.1926 65.1098 53.5968 65.0222 54.0243 65.1533C54.308 65.2403 54.5316 65.4163 54.7157 65.6261C54.9196 65.8596 55.0748 66.1354 55.1983 66.3983C55.4727 66.9812 55.6618 67.5998 55.7916 68.2319C55.9891 69.1928 56.0512 70.1857 56.0675 71.1384C56.1084 73.7089 55.6364 76.1919 54.9076 78.6255C53.8063 82.3068 52.1237 85.876 50.76 89.4741C50.3494 90.554 49.9628 91.6313 49.6136 92.7151ZM64.1165 79.8456C64.2089 79.8699 64.3112 79.8667 64.4064 79.8315C64.4142 79.8411 64.4459 79.8379 64.4628 79.8469C64.4953 79.8641 64.5285 79.8859 64.5616 79.9115C64.7479 80.056 64.9278 80.287 65.0922 80.5346C65.4393 81.0566 65.7102 81.6567 65.7659 81.8263C66.0975 82.8314 66.1313 83.949 66.0037 85.0801C65.8096 86.8024 65.2452 88.5553 64.7535 90.0166C64.1129 91.9058 63.1923 93.6178 62.098 95.2268C59.4905 99.0597 55.9553 102.327 53.1813 106.164C52.0341 107.739 51.0916 109.498 50.3501 111.328C49.9593 112.293 49.6242 113.277 49.3455 114.265C49.3222 114.157 49.2996 114.05 49.2771 113.943C49.2721 113.08 49.349 112.242 49.5056 111.415C49.7039 110.366 50.0305 109.335 50.4799 108.299C53.0338 102.425 57.671 97.5185 60.7795 91.9723C62.1291 89.5643 63.1972 87.0384 63.6903 84.2631C63.9161 83.0009 64.0438 81.7258 64.0967 80.4476C64.1052 80.2473 64.1115 80.0464 64.1165 79.8456ZM49.3187 109.019C49.3109 108.423 49.2721 107.833 49.1797 107.256C49.0569 106.496 48.8411 105.756 48.4798 105.047C48.513 105.001 48.5377 104.949 48.5504 104.893C49.2178 101.842 50.5646 99.045 52.2077 96.3714C54.7066 92.3044 57.8869 88.5227 60.4443 84.5856C61.1583 83.4871 61.6966 82.3624 62.1136 81.1993C62.5277 80.0445 62.8226 78.852 63.0512 77.6102C63.133 77.1662 63.2042 76.7216 63.2677 76.2757C63.3002 76.0479 63.3305 75.8195 63.3595 75.5905C63.3827 76.0748 63.3722 76.5373 63.3799 76.6576C63.4603 77.9103 63.4872 79.1693 63.4364 80.4252C63.3863 81.6791 63.2579 82.9292 63.0363 84.1665C62.546 86.8759 61.4977 89.3423 60.1678 91.6889C57.0192 97.2447 52.3269 102.143 49.7236 108.025C49.5762 108.357 49.4414 108.687 49.3187 109.019ZM39.0523 99.8536C40.5402 100.42 42.0874 100.941 43.5125 101.631C44.6681 102.191 45.7411 102.863 46.6286 103.77C46.9644 104.114 47.2417 104.468 47.4703 104.833C47.5803 107.137 47.6826 109.573 48.1102 112.329C45.8921 108.272 42.4338 104.072 39.0523 99.8536ZM27.4039 74.3679C27.4152 74.8535 27.4483 75.2917 27.4469 75.419C27.4314 76.9404 27.5379 78.456 27.7475 79.9607C27.9563 81.4629 28.2681 82.9548 28.6667 84.4295C29.2861 86.7307 30.453 89.078 31.9332 91.4496C33.3357 93.6959 35.0253 95.9632 36.7954 98.2312C34.9428 97.3796 33.1819 96.3758 31.6376 95.1673C29.7066 93.6562 28.1157 91.8258 27.0928 89.5918C26.2328 87.7051 25.7248 85.6662 25.5477 83.6004C25.3713 81.5365 25.5258 79.4457 25.9823 77.4535C26.1015 76.9353 26.2638 76.4139 26.4804 75.9123C26.6927 75.4197 26.958 74.9462 27.2861 74.515C27.303 74.4933 27.346 74.4376 27.4039 74.3679ZM47.3687 102.93C47.3235 103.075 47.2833 103.222 47.2558 103.357C47.2382 103.339 47.2205 103.321 47.2029 103.304C46.2448 102.344 45.0935 101.633 43.8532 101.046C42.0612 100.197 40.083 99.6073 38.2636 98.8677C36.2 96.2773 34.2034 93.6831 32.5787 91.1157C31.119 88.808 29.9648 86.5215 29.3468 84.2772C28.9489 82.8269 28.635 81.3605 28.424 79.8827C28.2131 78.4055 28.1044 76.9174 28.1157 75.4242C28.1171 75.2732 28.0663 74.6763 28.0642 74.0909C28.0642 74.0179 28.0649 73.945 28.0663 73.8734C28.0889 73.851 28.1094 73.826 28.127 73.7985C28.1961 73.6885 28.2025 73.5611 28.1552 73.4517C28.3577 73.7448 28.5637 74.089 28.6039 74.1433C29.102 74.8272 29.6163 75.5003 30.1532 76.158C30.6908 76.8169 31.2502 77.4618 31.8379 78.0869C34.8412 81.2876 38.313 84.1793 41.1829 87.4556C43.0722 89.6122 44.6991 91.9365 45.7496 94.6299C46.3309 96.1244 46.6978 97.5549 46.9398 98.972C47.1655 100.289 47.2847 101.596 47.3687 102.93ZM48.7515 91.9992C48.6943 92.1726 48.6344 92.346 48.5702 92.5187C48.5116 92.2244 48.4481 91.9307 48.379 91.6384C47.9049 89.6359 47.1768 87.6821 46.223 85.8255C45.188 83.8102 43.8673 82.0285 42.3787 80.3734C40.1571 77.9026 37.5609 75.714 34.9915 73.4453C33.354 71.9982 31.7723 70.4519 30.3317 68.807C28.8946 67.166 27.5979 65.4272 26.5227 63.5942C26.2631 63.1509 26.0176 62.7011 25.7932 62.2431C25.6465 61.943 25.5082 61.6385 25.3819 61.3301C25.4546 61.4158 25.5047 61.4753 25.5181 61.49C25.8849 61.904 26.2624 62.3083 26.6596 62.6966C27.0603 63.0875 27.4808 63.4611 27.9302 63.8098C28.6815 64.3939 29.483 64.8917 30.3112 65.3446C32.2154 66.3862 34.2655 67.1859 36.1767 68.2562C38.0237 69.2913 39.6195 70.6099 41.003 72.0993C42.3921 73.595 43.5668 75.2642 44.5679 76.9954C46.1249 79.6895 47.2777 82.379 47.9754 85.1518C48.5328 87.3667 48.7994 89.6346 48.7515 91.9992ZM33.5375 43.2567C33.5332 43.2529 33.5283 43.249 33.5241 43.2452C32.6711 42.466 31.8746 41.6342 31.1296 40.7808C29.8442 39.3068 28.8128 37.644 27.6233 36.1003C27.0998 35.4209 26.5467 34.7644 25.9294 34.1554C24.4316 32.6737 22.5741 31.4498 20.5585 30.4806C18.5548 29.5177 16.3946 28.8063 14.2781 28.345C12.829 28.0277 10.6999 27.6279 8.86839 27.8518C7.76359 27.9874 6.76531 28.3476 6.05769 29.0609C6.02454 29.0328 5.98644 29.0085 5.94411 28.9899C5.70848 28.8844 5.42204 28.972 5.30634 29.1857C4.93172 29.8862 4.10911 30.1959 3.34153 30.1351C2.57819 30.075 1.85789 29.6463 1.68292 28.8389C1.57569 28.3476 1.65965 27.8377 1.84167 27.3521C2.03427 26.8371 2.33692 26.349 2.65862 25.9331C3.64138 24.6651 5.04954 23.8494 6.61221 23.3517C8.20593 22.8437 9.95908 22.6645 11.6008 22.6754C13.9204 22.7017 16.2789 22.9652 18.5908 23.4323C18.9478 23.5046 19.3041 23.5813 19.6582 23.6632C19.7845 23.7905 19.9856 23.8392 20.1662 23.7835C21.9313 24.2128 23.657 24.7547 25.3078 25.3784C25.8214 25.5729 26.3223 25.7879 26.8162 26.0137C27.993 26.5511 29.1338 27.1455 30.331 27.6547C31.0555 27.9631 31.8287 28.2503 32.621 28.4794C33.4253 28.7123 34.2486 28.885 35.0613 28.9605C35.1022 28.9643 35.1869 28.9752 35.2956 28.9874C34.2676 29.0033 33.2341 29.0379 32.3078 29.2759C31.3935 29.5113 30.5786 29.9342 29.9514 30.6898C28.5425 32.3858 28.448 34.2718 29.023 36.138C29.8322 38.7636 31.9931 41.3521 33.5375 43.2567ZM41.0764 28.4397C41.2224 28.4301 41.3593 28.3591 41.4418 28.2452C42.7096 27.5536 43.904 26.7424 45.3086 26.2799C45.8067 26.1161 46.3711 25.9856 46.9355 25.9536C47.4745 25.9229 48.0135 25.9805 48.4876 26.1941C48.8897 26.3765 49.1635 26.617 49.3391 26.8979C49.337 26.9024 49.3349 26.9068 49.3335 26.9113C49.2503 27.1154 49.349 27.3406 49.5543 27.441C49.6221 27.7558 49.6129 28.1 49.555 28.4557C49.3116 29.9579 48.2456 31.6693 47.8774 32.6878C47.6184 33.4024 47.4498 34.1247 47.368 34.8546C47.2869 35.5846 47.2925 36.3229 47.3835 37.0695C47.4999 38.0279 47.7433 38.9978 47.8611 39.9689C47.9366 40.5908 47.9606 41.2133 47.8576 41.8332C47.7214 42.656 47.332 43.4493 46.8064 44.169C46.2745 44.8977 45.6014 45.5515 44.9009 46.0851C44.0246 46.7517 43.2507 46.8138 42.5713 46.5099C41.4595 46.0122 40.6122 44.6738 39.9991 43.5529C38.696 41.1647 38.0547 38.4815 36.9563 36.0049C36.4688 34.9058 35.8931 33.8464 35.1396 32.8675C34.6691 32.2559 33.8817 31.375 32.9787 30.7979C32.5427 30.519 32.0792 30.313 31.6093 30.2208C31.8901 30.0794 32.1893 29.9726 32.5018 29.8907C34.413 29.3904 36.7926 29.7685 38.6198 29.368C39.3959 29.1985 40.1056 28.9183 40.7843 28.5862C40.8824 28.5382 40.979 28.4896 41.0764 28.4397ZM30.6068 30.9847C30.695 31.0321 30.8008 31.0538 30.9102 31.041C31.4316 30.977 31.9536 31.1901 32.4397 31.4965C33.2546 32.0096 33.9629 32.7997 34.3904 33.3461C35.1121 34.2686 35.6645 35.2692 36.1351 36.3082C37.2625 38.793 37.9362 41.489 39.2696 43.8837C39.9391 45.089 40.8958 46.4869 42.081 47.0831C41.8665 47.1055 41.6514 47.1203 41.4383 47.1305C40.5176 47.1753 39.7112 47.0448 38.9648 46.7658C38.2043 46.4811 37.5066 46.0454 36.8124 45.494C36.3164 45.0999 35.8599 44.6757 35.4289 44.2311C34.9936 43.7813 34.5844 43.3098 34.1872 42.8261C32.6761 40.9875 30.5426 38.4975 29.7419 35.9544C29.2177 34.2891 29.2749 32.6008 30.5257 31.08C30.5525 31.0474 30.5793 31.0161 30.6068 30.9847ZM34.1844 48.2686C34.063 48.2917 33.9403 48.3109 33.8168 48.3262C33.2574 48.3966 32.6845 48.3959 32.1229 48.3787C30.3345 48.323 28.8544 47.8579 27.5076 47.1714C25.3989 46.096 23.6104 44.4966 21.496 43.0769C20.8124 42.6118 20.1048 42.1813 19.388 41.7648C17.7301 40.8013 16.0094 39.928 14.3388 38.9786C13.5684 38.5378 12.8269 38.0823 12.1447 37.5673C11.4752 37.0612 10.8635 36.4963 10.3379 35.8309C10.1573 35.6019 9.98095 35.369 9.81728 35.1298C9.65854 34.8969 9.51321 34.657 9.38763 34.4075L9.25289 34.0626C10.187 34.1477 11.1323 34.1887 12.0219 34.3192C13.4252 34.5258 14.8263 34.8323 16.1823 35.2551C17.5333 35.6761 18.8377 36.2122 20.054 36.8776C21.4121 37.6204 22.5846 38.5218 23.6704 39.4981C26.2885 41.8531 28.4149 44.6335 31.3554 46.7351C32.2125 47.348 33.1741 47.9052 34.1844 48.2686ZM9.04406 33.4197C8.90084 33.2028 8.6504 33.2431 8.46838 33.3531C8.43945 33.3493 8.41053 33.3454 8.3816 33.341C7.86518 33.2687 7.35933 33.1669 6.87889 33.0083C6.1614 32.7716 5.82065 32.263 5.74375 31.6885C5.66192 31.0813 5.86016 30.4057 6.21926 29.8658C6.81187 28.979 7.82497 28.5843 8.95658 28.4474C10.7055 28.235 12.7366 28.6323 14.1194 28.9381C16.1794 29.3949 18.2811 30.0954 20.2283 31.0416C22.1656 31.984 23.9498 33.1708 25.3847 34.6058C25.9752 35.1963 26.5037 35.8329 27.0031 36.4905C28.1898 38.0535 29.2163 39.7354 30.4989 41.2293C31.2552 42.1096 32.0651 42.9682 32.9329 43.7736C33.8055 44.5836 34.7375 45.3398 35.733 46.0122C36.0413 46.2207 36.3531 46.4229 36.6691 46.62C36.9852 46.8164 37.3048 47.0083 37.6307 47.1945L38.2022 47.4996C37.1771 47.9372 36.1252 47.9321 35.1135 47.6762C33.9629 47.3851 32.8644 46.7773 31.9007 46.1011C28.968 44.0423 26.8395 41.3009 24.2256 38.9863C23.0877 37.9793 21.8615 37.051 20.4435 36.2877C19.1771 35.6064 17.8197 35.0587 16.4165 34.6307C15.0189 34.2047 13.5762 33.8963 12.132 33.6922C11.1408 33.5514 10.0811 33.522 9.04406 33.4197ZM8.74987 34.0895C8.81125 34.0805 8.8698 34.0601 8.9213 34.0306C8.92765 34.0313 8.934 34.0319 8.94035 34.0326C8.87685 34.0697 8.80843 34.0844 8.74987 34.0895ZM32.1956 12.5486C32.2485 12.5057 32.3233 12.4737 32.4319 12.468C32.3431 12.4737 32.2619 12.5031 32.1956 12.5486ZM41.4369 18.737C41.4503 18.7165 41.463 18.6954 41.4764 18.675C41.6253 18.4453 41.7847 18.222 41.9533 18.0038C42.0535 17.8746 42.1593 17.7486 42.2701 17.6257C42.3801 17.5042 42.4965 17.3865 42.6172 17.2732C42.7576 17.1414 42.9227 16.9949 43.104 16.8708C43.2578 16.7653 43.4236 16.6763 43.5964 16.6399C43.7312 16.6117 43.8349 16.6475 43.8948 16.725C43.9753 16.8273 43.9866 16.9764 43.947 17.1178C43.8179 17.5727 43.305 17.9847 42.7244 18.2918C42.3096 18.5112 41.8503 18.6737 41.4369 18.737ZM28.4064 22.5328C28.0981 22.7093 27.7087 22.7714 27.3206 22.7567C26.843 22.7388 26.3619 22.6095 26.0063 22.3984C25.82 22.2877 25.6458 22.0984 25.571 21.8924C25.5146 21.7362 25.5131 21.5661 25.6662 21.4413C25.935 21.2225 26.2885 21.2679 26.6398 21.3908C27.2973 21.6205 27.9513 22.1361 28.2984 22.4355C28.3344 22.4675 28.3711 22.5001 28.4064 22.5328ZM31.2375 21.1681C31.0703 20.751 30.9187 20.2827 30.8813 19.8214C30.853 19.4785 30.8904 19.1401 31.0442 18.8356C31.0887 18.7485 31.1486 18.6993 31.2227 18.7063C31.3307 18.7165 31.4266 18.8004 31.4972 18.9059C31.7702 19.3205 31.8894 19.8297 31.8111 20.291C31.7525 20.6378 31.5691 20.9545 31.2375 21.1681ZM37.7831 18.1823C37.5129 18.2226 37.2244 18.1484 36.9732 18.0173C36.6536 17.8503 36.3799 17.5944 36.272 17.3084C36.2021 17.1235 36.2303 16.8977 36.334 16.7128C36.4272 16.5452 36.5789 16.4006 36.7933 16.3801C37.1037 16.3507 37.2914 16.5509 37.4283 16.7985C37.6611 17.2214 37.7486 17.7908 37.7831 18.1823Z" fill="#C09561"/>
</svg>
