<svg width="420" height="490" viewBox="0 0 420 490" fill="none" xmlns="http://www.w3.org/2000/svg">
<path d="M272.5 36C268.634 36 265.5 39.134 265.5 43V112.5C265.5 116.366 268.634 119.5 272.5 119.5H294.5C306.913 119.5 332.44 127.783 335.93 160.8C335.978 161.258 335.978 161.729 335.923 162.186C335.479 165.84 334.272 171.609 331.996 177.305C329.74 182.948 333.145 191.911 339.019 193.468C354.954 197.693 376.398 206.582 393.489 222.777C396.722 225.841 401.946 225.59 404.106 221.695C410.939 209.38 419.5 187.462 419.5 161.5C421.478 122.749 393.485 46.7325 308 36H272.5Z" fill="#033431"/>
<path d="M84.5 329C84.5 341.833 92.9 368.1 126.5 370.5H147.5C151.366 370.5 154.5 373.634 154.5 377.5V447.5C154.5 451.366 151.366 454.5 147.5 454.5H126.5C85.8333 453.833 3.7 427.8 0.5 329C-0.254945 318.431 2.08148 292.87 16.2084 268.526C18.4875 264.598 23.9186 264.267 27.2335 267.37C38.4686 277.888 57.6573 291.696 79.8424 297.154C85.9587 298.658 89.9042 308.056 87.5382 313.893C85.7568 318.288 84.5 323.408 84.5 329Z" fill="#033431"/>
<path d="M203.5 483C203.5 486.866 200.366 490 196.5 490H175C171.134 490 168 486.866 168 483V461.5C168 457.634 171.134 454.5 175 454.5H196.5C200.366 454.5 203.5 457.634 203.5 461.5V483Z" fill="#F1DECD"/>
<path d="M168.013 433.987C168.006 437.858 171.142 441 175.013 441H196.5C200.366 441 203.5 437.866 203.5 434V301.25V168.5C203.5 164.634 200.366 161.5 196.5 161.5H175.487C171.626 161.5 168.494 164.626 168.488 168.487L168.25 301.25L168.013 433.987Z" fill="#C09561"/>
<path d="M252 7C252 3.13401 248.866 0 245 0H223.5C219.634 0 216.5 3.13401 216.5 7V29C216.5 32.866 219.634 36 223.5 36H245C248.866 36 252 32.866 252 29V7Z" fill="#F1DECD"/>
<path d="M223.5 50C219.634 50 216.5 53.134 216.5 57V322C216.5 325.866 219.634 329 223.5 329H245C248.866 329 252 325.866 252 322V57C252 53.134 248.866 50 245 50H223.5Z" fill="#C09561"/>
<path d="M168.5 36V7C168.5 3.13401 171.634 0 175.5 0H196.5C200.366 0 203.5 3.13401 203.5 7V140C203.5 143.866 200.366 147 196.5 147H175.5C171.634 147 168.5 143.866 168.5 140V119.5V36Z" fill="#033431"/>
<path d="M155 112.5C155 116.366 151.866 119.5 148 119.5H126.5C113.167 119.5 86.1 127.8 84.5 161C84.5 174 92.9 200.6 126.5 203H147.5C151.366 203 154.5 206.134 154.5 210V279.5C154.5 283.366 151.366 286.5 147.5 286.5H126.5C86 286.667 4 261.9 0 161.5C0.333333 121.167 26.1 39.6 126.5 36H148C151.866 36 155 39.134 155 43V112.5Z" fill="#033431"/>
<path d="M216.5 483C216.5 486.866 219.634 490 223.5 490H245C248.866 490 252 486.866 252 483V454.5V370.5V350.5C252 346.634 248.866 343.5 245 343.5H223.5C219.634 343.5 216.5 346.634 216.5 350.5V483Z" fill="#033431"/>
<path d="M272.5 203C268.634 203 265.5 206.134 265.5 210V279.5C265.5 283.366 268.634 286.5 272.5 286.5H294.5C307.075 286.831 332.825 295.671 335.936 328.285C335.98 328.753 335.972 329.247 335.912 329.713C331.644 363.11 306.581 370.831 294.5 370.5H272.5C268.634 370.5 265.5 373.634 265.5 377.5V447.5C265.5 451.366 268.634 454.5 272.5 454.5H294.5C334.5 453.667 415.5 427.4 419.5 329C415.5 230.2 334.5 203.833 294.5 203H272.5Z" fill="#033431"/>
</svg>
