<svg width="68" height="78" viewBox="0 0 68 78" fill="none" xmlns="http://www.w3.org/2000/svg">
<path fill-rule="evenodd" clip-rule="evenodd" d="M2.33604 27.7913C1.94587 27.2491 1.54451 26.6992 1.21081 26.1259C0.966639 25.7072 0.758082 25.2758 0.613104 24.8262C0.549518 24.6308 0.498642 24.4319 0.469647 24.2305C0.439634 24.0219 0.433022 23.8108 0.459983 23.5972C0.539339 22.9679 0.829807 22.4836 1.24999 22.1621C1.66661 21.8437 2.21447 21.686 2.82337 21.7181C3.08026 21.7313 3.33511 21.7745 3.58946 21.832C3.61286 21.7516 3.63677 21.6738 3.66169 21.5985C3.88094 20.9316 4.31078 20.2011 4.89273 19.8847C5.3124 19.6568 5.8099 19.6207 6.37201 19.9534C6.91631 20.2744 7.32376 20.746 7.66153 21.2816C7.67578 21.304 7.68952 21.3269 7.70376 21.3498C7.74242 21.3055 7.78159 21.2613 7.82076 21.2165C8.27248 20.7063 8.73539 20.1905 9.22526 19.9682C9.7426 19.7337 10.2991 19.7708 10.9116 20.4C10.9986 20.4896 11.0749 20.5883 11.1445 20.6915C11.2443 20.3812 11.3669 20.0791 11.5139 19.7967C11.8954 19.0637 12.4422 18.4665 13.1783 18.1933C13.6743 18.0092 14.1636 18.0361 14.6245 18.1923C15.2746 18.4126 15.8678 18.8953 16.3297 19.374C17.1812 20.2556 17.8532 21.3294 18.3609 22.4811C18.865 23.6251 19.2068 24.8465 19.4021 26.0313C19.6194 27.3493 19.6936 28.7258 19.5624 30.0764C19.4306 31.4351 19.0903 32.7668 18.4779 33.9872C18.2276 34.4867 17.9295 34.9196 17.5943 35.3144C17.0927 35.9045 16.5072 36.4091 15.8708 36.9234C15.5305 37.1991 15.1932 37.4656 14.8524 37.719C14.8936 37.8146 14.9358 37.9092 14.9801 38.0028C15.2731 38.6244 15.6607 39.1835 16.1018 39.7018C16.7748 40.4934 17.5714 41.1893 18.3542 41.8628L19.7069 42.9951L20.1408 43.371C20.181 43.4061 20.2807 43.4957 20.3366 43.546C20.3641 43.5613 20.3895 43.5816 20.4114 43.6066C20.447 43.6483 20.4689 43.688 20.4811 43.7251C20.5447 43.6824 20.6103 43.6417 20.6774 43.6025C21.1668 43.3161 21.8006 43.1706 22.3465 43.2937C22.7382 43.3817 23.0871 43.604 23.3232 44.0028C23.4595 44.2323 23.5409 44.5085 23.5744 44.7918C23.607 45.065 23.5938 45.3453 23.546 45.5951C23.5388 45.6317 23.3842 45.9944 23.3114 46.1327C23.2529 46.2436 23.1675 46.2858 23.0846 46.295L25.5299 52.3291C26.4379 54.604 27.6124 56.8407 28.5215 59.1497C28.9167 60.1538 29.2626 61.1717 29.5155 62.2125C29.7322 63.1042 29.8598 64.0112 29.9082 64.9223C29.9585 64.7865 30.0013 64.6445 30.0389 64.4991C30.0938 64.2859 30.1381 64.0667 30.1768 63.851C30.1462 63.7971 30.1528 63.7019 30.1747 63.5977C30.1096 62.6876 29.9809 61.7847 29.8141 60.8863C29.3745 58.5174 28.6736 56.1794 28.1796 53.8257C28.0647 53.8816 27.9217 53.8577 27.8317 53.7575C27.2213 53.0738 26.7797 52.2838 26.4582 51.4384C25.9877 50.2018 25.7755 48.8476 25.6565 47.5515C25.538 46.2747 25.5156 44.9938 25.5339 43.7114C25.5767 40.7508 25.8473 37.78 25.7089 34.8204C25.6311 33.3234 25.3096 31.5826 25.3762 29.9411C25.4235 28.7904 25.6601 27.6876 26.2873 26.7404C27.0407 25.5994 28.2493 25.1644 29.374 25.3333C30.4947 25.5017 31.5345 26.2734 31.9658 27.5604C32.0859 27.9175 32.1072 28.2217 32.0782 28.5066C32.036 28.9283 31.8712 29.3052 31.7568 29.7732C31.7374 29.8505 31.6871 29.9116 31.6225 29.9477C32.2273 31.2286 32.6444 32.5252 32.8382 33.8499C33.061 35.3698 32.9898 36.9269 32.5707 38.541C31.7644 41.6522 29.7067 44.6112 28.6461 47.7173C28.3373 48.6228 28.1145 49.541 28.0382 50.48C28.1639 51.3779 28.3139 52.2747 28.491 53.1705C28.9951 55.717 29.7835 58.2406 30.2698 60.8009C30.308 61.0013 30.3446 61.2022 30.3787 61.4037C30.3736 60.9082 30.3543 60.4132 30.3294 59.9249C30.1808 57.0742 29.3466 54.196 29.3461 51.3468C29.3461 50.1046 29.5012 48.8675 29.9356 47.64C30.4886 46.0656 31.4215 44.772 32.531 43.6173C33.175 42.9468 33.88 42.3236 34.6049 41.7208C36.2633 39.3783 38.1719 37.194 39.8322 34.8001C40.3715 34.0208 41.0424 33.0405 41.5542 31.9941C41.5114 31.4514 41.3609 30.9717 41.162 30.5154C40.811 29.7091 40.3145 28.974 39.9518 28.1261C39.8607 28.096 39.7702 28.0645 39.6801 28.0309C39.206 27.8549 38.7487 27.6285 38.3046 27.3686C36.9668 26.5857 35.8298 25.4417 34.9401 24.1216C34.0565 22.8112 33.4156 21.3279 33.0666 19.8532C32.6047 17.9186 32.6597 16.1006 33.0209 14.3456C33.5616 11.7151 34.7998 9.2256 36.0649 6.70707C36.2745 6.28791 36.4993 5.85755 36.7119 5.41702C36.6555 5.33308 36.601 5.24763 36.5496 5.16115C36.1681 4.52173 35.9173 3.8121 35.867 3.04601C35.8492 2.77488 35.9189 2.23719 36.0867 1.77326C36.2068 1.44058 36.3792 1.14808 36.5878 0.989366C36.8778 0.769103 37.2455 0.72739 37.6789 1.14503C37.8722 1.33222 37.9928 1.57589 38.0569 1.84295C38.1424 2.19903 38.1276 2.59633 38.0788 2.9224C37.9933 3.49366 37.8178 4.05576 37.595 4.60515C37.505 4.82694 37.4073 5.04619 37.3051 5.26391C37.5869 5.64237 37.9191 5.98727 38.2782 6.29553C38.677 5.8138 39.1816 5.44144 39.8205 5.25526C41.4789 4.76997 43.298 5.32495 44.8576 6.36065C45.2605 6.62822 45.6461 6.92784 46.0067 7.24933C46.0312 7.22644 46.0556 7.20355 46.08 7.18116C45.6161 6.7269 45.1247 6.28637 44.6175 5.86314C43.5813 4.99938 42.481 4.2099 41.4285 3.52876C41.1192 3.32884 40.8018 3.14113 40.4747 2.97276C40.1507 2.80591 39.817 2.65889 39.4726 2.53732C39.3475 2.49306 39.2208 2.45185 39.0926 2.41523C38.9664 2.37911 38.8388 2.34707 38.7101 2.32062C38.6897 2.31655 38.4547 2.27432 38.3631 2.25194C38.0757 2.18072 38.1408 1.85923 38.1576 1.83023C38.2278 1.71069 38.3748 1.66338 38.5 1.71374C38.5249 1.63082 38.8057 1.77937 38.8245 1.78344C38.9664 1.81498 39.1068 1.85211 39.2462 1.89382C39.3836 1.93502 39.5199 1.98131 39.6552 2.03066C40.0205 2.16495 40.374 2.32672 40.7174 2.50883C41.0572 2.68941 41.3868 2.88984 41.7073 3.10298C42.2307 3.44991 42.7654 3.82431 43.298 4.22109C43.7593 3.6249 44.6994 3.05822 45.7371 2.70162C46.3511 2.49052 46.9967 2.35113 47.6005 2.32672C48.8564 2.27636 49.9191 2.73316 50.2243 4.01965C50.2253 4.02575 50.2263 4.03135 50.2274 4.03745C50.292 4.00998 50.3566 3.98404 50.4217 3.95962C51.286 3.63304 52.2082 3.57505 53.2058 4.011C53.6056 4.18497 53.9963 4.4088 54.3676 4.66111C54.7354 4.91138 55.0849 5.19015 55.4069 5.47705C56.0142 6.0183 56.4761 6.58396 56.8124 7.16692C56.8129 7.16641 56.8129 7.1659 56.8134 7.1659C56.8688 7.09621 56.9513 7.06061 57.0337 7.06213C57.0525 7.05756 57.0861 7.04992 57.114 7.04229C57.495 6.93852 58.4214 6.62415 58.546 6.60787C59.2378 6.5163 59.893 6.57175 60.478 6.79507C61.0686 7.02042 61.5905 7.41517 62.0051 8.00932C62.4477 8.64264 62.729 9.38736 62.907 10.1723C63.0881 10.9704 63.1624 11.8108 63.1965 12.613C63.5022 12.5845 63.8084 12.5845 64.1096 12.6135C65.364 12.7361 66.5345 13.3658 67.2299 14.603C67.9792 15.9317 67.7009 17.2629 66.9537 18.4914C65.9281 20.1772 64.0043 21.6657 62.8037 22.6495L60.0584 24.8419C57.4121 26.9357 53.7897 29.5687 50.1266 30.4096C47.6488 30.9783 45.1521 30.7346 42.9068 29C42.9348 29.7493 42.7613 30.525 42.4693 31.286C42.362 31.5658 42.2389 31.8436 42.1046 32.1172C42.1046 32.1188 42.1051 32.1208 42.1051 32.1223C42.1483 33.6072 41.7088 34.9654 40.9865 36.1827C40.2779 37.3761 39.2981 38.4337 38.2426 39.3386C37.1875 40.2461 36.0369 41.1013 34.9335 42.0032C34.8094 42.1766 34.6863 42.3511 34.5652 42.5271C33.408 44.2048 32.4053 45.9847 31.7369 48.0001C31.2669 49.4326 30.9896 50.9175 30.8609 52.4176C30.7317 53.9208 30.7526 55.4393 30.8727 56.9374C30.9754 58.2015 31.0583 59.4386 31.0354 60.6798C31.0232 61.3599 30.979 62.0411 30.8894 62.7278C30.8843 62.8367 30.8777 62.945 30.8706 63.0533C30.9098 62.8575 30.9464 62.6601 30.98 62.4612C31.5111 59.3063 31.6021 56.0939 32.1657 52.9614C32.4089 51.6098 32.739 50.2725 33.2284 48.9611C34.2056 46.3423 35.7154 43.9337 37.5706 41.8155C39.4197 39.7044 41.6122 37.8812 43.9654 36.4325C44.6078 36.0367 45.2859 35.6654 45.9869 35.348C46.6914 35.0285 47.4199 34.7635 48.1616 34.5844C48.5985 34.4791 49.0914 34.4115 49.4638 34.561C49.7416 34.6724 49.9659 34.8932 50.0681 35.2991C50.121 35.5092 50.1368 35.7279 50.1241 35.9508C50.1327 35.9472 50.1414 35.9436 50.1505 35.9401C50.2879 35.8923 50.4375 35.9579 50.4954 36.0881C50.5606 36.1115 50.6379 36.2733 50.6699 36.3302C50.7366 36.4483 50.7976 36.5714 50.849 36.698C50.9019 36.8267 50.9461 36.959 50.9782 37.0933C51.0464 37.3766 51.0815 37.6752 51.0916 37.9774C51.1059 38.4154 51.0687 38.8615 51.0113 39.2761C50.8525 40.4278 50.5519 41.5204 50.0987 42.5424C49.6439 43.5669 49.036 44.5212 48.2592 45.3921C47.5099 46.234 46.6645 46.9828 45.7753 47.6888C43.7415 49.3044 41.4682 50.6855 39.5408 52.3815C37.7619 53.96 36.2617 55.6458 34.9493 57.4654C34.2076 58.4929 33.5265 59.5632 32.8866 60.6793C32.6144 61.4128 32.3418 62.1499 31.9887 62.8366C31.7583 63.2853 31.4938 63.7126 31.1748 64.1058C31.1082 64.38 31.0364 64.6527 30.9606 64.9238C30.8732 65.2387 30.7796 65.551 30.6814 65.8623C30.6778 65.9264 30.6737 65.9905 30.6692 66.0546C30.5852 67.2918 30.3161 68.4363 29.9422 69.5331C29.6182 70.4823 29.2148 71.3944 28.7855 72.2983C28.5444 73.1606 28.2132 74.4226 27.7605 75.3978C27.4624 76.0403 27.1027 76.5586 26.6993 76.8074C26.6749 76.8699 26.651 76.933 26.6276 76.9956C26.5732 77.1385 26.4129 77.2108 26.27 77.1563C26.1271 77.1019 26.0548 76.9417 26.1093 76.7987C26.739 75.1557 27.5631 73.6347 28.3083 72.0877C28.3658 71.8863 28.4187 71.7082 28.4665 71.5638C28.8674 70.3439 29.1645 69.0768 29.3242 67.7938C29.2723 66.9011 28.9803 66.077 28.5433 65.3104C28.4213 65.1756 28.2885 65.05 28.1476 64.9325C27.2121 64.1526 25.9175 63.708 24.7439 63.2787C23.5495 62.8443 22.2727 62.4709 21.0971 61.9251C20.2929 61.5522 19.5354 61.1 18.8818 60.4941C18.5099 60.1508 18.1854 59.7667 17.8964 59.3567C17.61 58.9507 17.3577 58.5194 17.1298 58.0768C16.4985 56.8565 16.0743 55.4962 15.8988 54.109C15.7223 52.7137 15.7986 51.2909 16.1781 49.9525C16.3073 49.4952 16.494 49.0572 16.7183 48.6386C16.9401 48.2255 17.199 47.8307 17.4773 47.4558C17.5693 47.3317 17.665 47.2101 17.7647 47.0921C17.8654 46.9726 17.9702 46.8571 18.0796 46.7462L18.2668 46.5667C18.2383 46.5412 18.3273 46.4868 18.3481 46.4654C18.3848 46.4288 18.4209 46.4089 18.4463 46.3983C18.5094 46.3708 18.5659 46.3677 18.6157 46.3794C18.634 46.3215 18.6534 46.2635 18.6732 46.206C18.9642 45.3641 19.4128 44.6087 20.067 44.0405C20.0563 44.0339 20.0436 44.0252 20.0304 44.0145C19.9866 43.9794 19.8386 43.8411 19.7771 43.7872L19.3482 43.4112L18.0007 42.2723C17.2 41.5769 16.3871 40.8571 15.7004 40.0417C15.2329 39.4862 14.8234 38.8864 14.5136 38.2216C14.4892 38.1692 14.4653 38.1163 14.4414 38.0633C14.4332 38.0628 14.4251 38.0618 14.417 38.0608C14.3905 38.0862 14.3544 38.1102 14.3061 38.1285C14.2923 38.1336 14.2781 38.1376 14.2639 38.1407C13.8823 38.4027 13.4927 38.6463 13.0872 38.8666C12.4336 39.2216 11.7387 39.5152 10.9706 39.7263C9.83213 40.0391 8.64128 39.9613 7.54963 39.5798C6.46459 39.2003 5.47721 38.5202 4.73707 37.6254C4.42575 37.2494 4.14902 36.843 3.88907 36.4233C3.30306 35.4767 2.80251 34.4567 2.16309 33.5584C1.59742 32.7643 0.650746 31.5806 0.397926 30.4747C0.204623 29.6297 0.38368 28.823 1.33392 28.2222C1.49568 28.1199 1.66609 28.0319 1.84261 27.9577C2.00336 27.8905 2.16817 27.8351 2.33604 27.7913ZM13.5975 38.0705L13.5573 38.0633C13.3253 38.0099 13.0949 37.9509 12.867 37.8853C12.6381 37.8197 12.4117 37.7475 12.1864 37.6686C11.3577 37.3792 10.5199 37.0546 9.72835 36.6497C9.19423 36.376 8.68095 36.0662 8.20533 35.7051C7.23169 34.9669 6.46204 34.1098 5.7865 33.1865C4.78336 31.8156 3.9898 30.2971 3.04007 28.8072C2.91849 28.618 2.78878 28.4287 2.65601 28.239C2.60565 28.2497 2.5558 28.2609 2.50544 28.2731C2.34622 28.3112 2.18953 28.3621 2.03744 28.4247C1.88635 28.4872 1.74037 28.562 1.602 28.6485C0.874064 29.1043 0.734675 29.7193 0.879652 30.3658C1.11467 31.4132 2.02218 32.5273 2.55427 33.2806C3.19624 34.1902 3.69832 35.2208 4.28586 36.1786C4.53309 36.5815 4.79608 36.9717 5.09213 37.3324C5.77683 38.1666 6.69095 38.802 7.69765 39.1581C8.70435 39.5141 9.80364 39.591 10.8556 39.3056C11.5912 39.1062 12.2565 38.8269 12.8833 38.4891C13.1264 38.3579 13.364 38.218 13.5975 38.0705ZM19.9276 43.8263C19.9307 43.869 19.948 43.9184 19.9932 43.9703C19.9566 43.9281 19.9348 43.8777 19.9276 43.8263ZM18.4077 47.1923C18.3278 47.2737 18.25 47.3577 18.1747 47.4436C18.0806 47.552 17.99 47.6634 17.903 47.7768C17.6339 48.1273 17.3826 48.4956 17.167 48.8837C16.9543 49.2673 16.7763 49.6692 16.6511 50.0893C16.2732 51.3631 16.1826 52.7218 16.3383 54.0556C16.494 55.3945 16.8968 56.7084 17.4966 57.8886C17.7148 58.3144 17.9554 58.73 18.2311 59.1196C18.5043 59.5052 18.8121 59.8654 19.1636 60.1874C19.7893 60.7576 20.5126 61.1809 21.2792 61.5268C22.4492 62.0543 23.7199 62.4037 24.9077 62.8188C25.7781 63.1215 26.708 63.4369 27.529 63.8764C26.4648 62.6067 25.1254 61.5018 24.0363 60.5018C22.5952 59.1827 21.3118 57.8215 20.3168 56.2959C19.3131 54.7581 18.601 53.052 18.3334 51.0386C18.1767 49.8909 18.1457 48.4941 18.4077 47.1923ZM28.9701 64.9467C28.9956 64.9742 29.021 65.0022 29.0459 65.0306C28.9238 64.7483 28.7779 64.4711 28.6151 64.1994C27.6816 62.6434 26.1917 61.2658 25.1595 60.0739C24.0104 58.7478 23.0622 57.2878 22.3622 55.7211C21.6612 54.1507 21.2095 52.4736 21.0559 50.7155C20.9994 50.069 20.9954 49.4346 21.0259 48.8039C21.0722 47.8618 21.1968 46.9288 21.3448 45.9766C21.3718 45.8051 21.3952 45.2659 21.498 44.8819C21.5707 44.6107 21.7019 44.4139 21.8495 44.3523C21.9125 44.3264 21.9904 44.3213 22.0763 44.3716C22.1221 44.3991 22.1857 44.4591 22.2508 44.5532C22.4268 44.8076 22.6903 45.3778 22.8689 45.7853C22.9284 45.6683 23.0057 45.5091 23.0098 45.4882C23.0505 45.2908 23.0637 45.0686 23.0413 44.8513C23.0195 44.6428 22.9655 44.4383 22.8679 44.2679C22.6756 43.9321 22.3582 43.7846 22.0173 43.7607C21.6455 43.7348 21.2472 43.8472 20.9247 44.0303C20.0233 44.5441 19.451 45.3885 19.1056 46.3576C18.5786 47.8348 18.572 49.5984 18.75 50.9831C19.0079 52.9304 19.6896 54.5841 20.6657 56.067C21.648 57.5585 22.9264 58.875 24.3507 60.1553C25.653 61.3207 27.295 62.6311 28.4528 64.1811C28.6385 64.4299 28.8119 64.6852 28.9701 64.9467ZM18.2907 46.7208C18.2861 46.6999 18.284 46.6786 18.2846 46.6567C18.284 46.6811 18.2861 46.7025 18.2907 46.7208ZM29.7006 68.6225C29.7159 68.5711 29.7301 68.5198 29.7449 68.4684C29.7372 68.476 29.7296 68.4826 29.7215 68.4892C29.7149 68.5335 29.7077 68.5782 29.7006 68.6225ZM50.3881 36.4376C50.3713 36.4477 50.3535 36.4564 50.3347 36.463C50.355 36.4559 50.3729 36.4472 50.3881 36.4376ZM50.0442 36.49C50.0437 36.4925 50.0432 36.4956 50.0422 36.4986C49.911 37.0643 49.65 37.6274 49.4404 38.0944C49.0065 39.0614 48.5004 39.9984 47.9393 40.9019C47.3787 41.8038 46.7632 42.6726 46.11 43.5033C43.8275 46.4064 41.0536 48.9122 38.5768 51.6561C37.5218 52.8241 36.5217 54.0363 35.6376 55.3406C35.1701 56.0304 34.7301 56.7344 34.3292 57.4598C34.3257 57.4669 34.3216 57.474 34.3175 57.4811C34.3928 57.3769 34.4686 57.2731 34.5449 57.1698C35.8985 55.339 37.4348 53.641 39.2564 52.0575C41.1915 50.36 43.4796 48.986 45.5133 47.3607C46.3806 46.6674 47.1996 45.9262 47.926 45.098C48.6626 44.2567 49.2379 43.338 49.6632 42.3521C50.088 41.3673 50.3632 40.3153 50.5031 39.2084C50.5438 38.8849 50.5712 38.541 50.5682 38.1982C50.5651 37.865 50.5331 37.5333 50.4542 37.223C50.4268 37.1157 50.3901 37.0104 50.3464 36.9076C50.3042 36.8069 50.2543 36.7097 50.2004 36.6161C50.1531 36.6538 50.0905 36.5663 50.0442 36.49ZM31.6021 61.8299C31.8437 61.3864 32.0899 60.9494 32.3423 60.5196C32.473 60.1731 32.6032 59.8272 32.7416 59.4874C33.0636 58.6969 33.4385 57.9349 33.8531 57.1947C34.2661 56.4576 34.7189 55.7424 35.2001 55.042C36.1056 53.7229 37.128 52.499 38.2054 51.3188C40.6904 48.5963 43.4679 46.1093 45.7575 43.2251C46.4045 42.4096 47.014 41.557 47.5689 40.6709C48.1234 39.7863 48.6235 38.8676 49.0528 37.9199C49.2537 37.4758 49.5076 36.9417 49.6337 36.403C49.7136 36.0616 49.7431 35.7193 49.6632 35.4009C49.6017 35.1557 49.476 35.0148 49.3087 34.9471C49.008 34.8255 48.6112 34.9028 48.2582 34.9873C47.5415 35.1592 46.8369 35.4136 46.1558 35.7213C45.4706 36.0311 44.8088 36.3954 44.1815 36.7825C41.865 38.2129 39.7061 40.0096 37.8895 42.0942C36.075 44.1768 34.6029 46.5463 33.6537 49.1188C33.1791 50.4063 32.8611 51.7177 32.6292 53.0438C32.122 55.9408 32.0213 58.905 31.6021 61.8299ZM33.6974 43.0638C33.3988 43.3359 33.1078 43.6157 32.8291 43.9042C31.7568 45.0131 30.8599 46.2614 30.3283 47.7778C29.9168 48.9605 29.7739 50.1509 29.7825 51.3453C29.7937 52.9889 30.0872 54.6391 30.3655 56.2888C30.2983 54.9886 30.3105 53.6782 30.4296 52.379C30.5705 50.8473 30.8589 49.3324 31.3457 47.8709C31.9206 46.1236 32.7446 44.5507 33.6974 43.0638ZM41.5186 33.187C41.0963 33.8911 40.6406 34.5412 40.2494 35.0926C38.8957 37.0073 37.3783 38.7826 35.9652 40.6185C36.6377 40.0803 37.3066 39.5447 37.9419 38.9917C38.9502 38.1112 39.8877 37.0867 40.5581 35.9314C41.0485 35.0855 41.3955 34.1688 41.5186 33.187ZM42.2775 28.6063C41.4367 28.9415 41.3354 28.7843 41.7154 28.4506L41.1813 28.3957C41.0139 28.3768 40.8491 28.3509 40.6858 28.3183C41.079 29.1429 41.5603 29.8861 41.8462 30.7295C41.8848 30.8425 41.9194 30.9574 41.9504 31.0744C42.2562 30.2458 42.4174 29.4013 42.2775 28.6063ZM63.2112 13.0265C63.2168 13.2198 63.2204 13.4096 63.2234 13.5953C63.2743 16.3437 62.4487 18.5698 61.0635 20.4606C59.7023 22.3188 57.7967 23.8546 55.6236 25.224C54.5726 25.8898 53.4489 26.5298 52.2799 27.0624C51.1018 27.5996 49.8779 28.0274 48.6347 28.2644C47.8436 28.416 47.0709 28.4715 46.3008 28.4811C45.2875 28.4943 44.2797 28.4267 43.2445 28.3982C43.2191 28.417 43.1937 28.4353 43.1682 28.4537C45.2798 30.1618 47.6519 30.4091 50.0081 29.8856C53.6051 29.086 57.1649 26.513 59.7725 24.4777L62.5235 22.3066C63.699 21.3518 65.5904 19.9153 66.5966 18.2732C67.267 17.179 67.5387 15.9917 66.8723 14.8039C66.2476 13.6945 65.1956 13.1318 64.0699 13.024C63.7865 12.9965 63.4986 12.9981 63.2112 13.0265ZM57.0464 7.61813C57.6899 9.01246 57.6634 10.4938 57.2315 11.971C56.2935 15.1793 53.3986 18.3749 51.3551 20.5623C50.9233 21.0247 50.497 21.4917 50.0636 21.9531C49.7736 22.2624 49.4806 22.5686 49.1815 22.8697C48.2307 23.8256 47.1676 25.1126 45.9538 26.0699C45.9472 26.075 45.9406 26.0801 45.934 26.0857C45.6334 26.455 45.3093 26.8182 44.9609 27.1463L45.9513 26.8986C47.1772 26.6101 48.4129 26.3039 49.5773 25.8334C50.3428 25.5246 51.0779 25.1446 51.759 24.6507C52.8115 23.8876 53.6946 22.9949 54.479 22.0177C55.2695 21.0323 55.9608 19.9615 56.6267 18.8506C57.2845 17.7528 57.9249 16.5904 58.7037 15.5502C59.2337 14.8421 59.8274 14.1904 60.5319 13.6507C61.1805 13.1537 61.9522 12.82 62.7473 12.6745C62.7086 11.8876 62.6318 11.0615 62.4472 10.2786C62.2767 9.55778 62.0143 8.87359 61.6012 8.2947C61.2441 7.79465 60.8005 7.46196 60.2969 7.27578C59.7877 7.08808 59.2185 7.05145 58.6198 7.13793C58.5007 7.15472 57.6243 7.47112 57.2621 7.57439C57.1685 7.60084 57.0988 7.61457 57.0647 7.61712C57.0586 7.61763 57.0525 7.61763 57.0464 7.61813ZM49.7217 4.28569C49.6846 4.24703 49.6571 4.19769 49.6454 4.14122C49.4582 3.11621 48.6016 2.74486 47.6117 2.75656C47.0501 2.76368 46.4447 2.89137 45.8791 3.09993C44.9543 3.44075 44.1327 3.99523 43.7441 4.54971C43.7426 4.55174 43.741 4.55377 43.7395 4.55581C44.1368 4.86204 44.5305 5.18048 44.9161 5.50859C45.4345 5.94911 45.937 6.40795 46.4096 6.87951C46.6248 6.68621 46.842 6.49698 47.0607 6.31131C47.892 5.60473 48.7715 4.80913 49.7217 4.28569ZM46.7062 7.18066C47.0775 7.56625 47.428 7.95998 47.75 8.3593C48.4556 9.23222 49.1077 10.2745 49.6108 11.3784C50.1175 12.4914 50.4731 13.667 50.5733 14.8019C50.8195 17.4735 49.9751 20.1686 48.5507 22.5676C48.4525 22.7329 48.3518 22.8967 48.248 23.059C48.4373 22.8606 48.6224 22.6693 48.803 22.4903C49.1006 22.1957 49.3926 21.8951 49.682 21.5919C50.118 21.1341 50.5478 20.6707 50.9828 20.2123C52.9977 18.0829 55.8688 14.982 56.8042 11.8449C57.432 9.73836 57.1669 7.61813 55.1286 5.78786C54.8214 5.51215 54.4866 5.24407 54.1346 5.00295C53.7852 4.76437 53.4179 4.55276 53.0409 4.38743C52.1548 3.99981 51.3348 4.05373 50.5672 4.34419C49.3865 4.79133 48.3269 5.78124 47.3319 6.62974C47.1218 6.80982 46.9127 6.99346 46.7062 7.18066ZM38.6531 1.86788C38.6841 1.94469 38.68 2.03473 38.6348 2.11154C38.6795 2.03676 38.6907 1.95538 38.6531 1.86788ZM46.3186 7.53827C47.1915 8.38016 47.892 9.34107 48.302 10.2567C49.358 12.6109 49.7334 15.2439 49.4694 17.8088C49.3448 19.0225 49.0762 20.2215 48.6682 21.3681C49.7405 19.3145 50.3444 17.0706 50.1592 14.838C50.0641 13.7484 49.7248 12.6176 49.2359 11.5498C48.7455 10.48 48.1046 9.47435 47.4158 8.63094C47.0958 8.24128 46.7479 7.85671 46.3796 7.48079C46.3593 7.50012 46.3389 7.51894 46.3186 7.53827ZM37.9333 6.77777C37.6037 6.49341 37.2959 6.18006 37.0232 5.84025C36.8391 6.20498 36.6499 6.5626 36.4708 6.91207C35.2092 9.3894 33.9594 11.8347 33.4227 14.4285C33.0722 16.125 33.0305 17.884 33.4833 19.753C33.8302 21.1748 34.4574 22.6042 35.3212 23.8627C36.1803 25.1146 37.2745 26.1971 38.5575 26.9311C38.9781 27.1717 39.4105 27.3808 39.8592 27.5416C40.3018 27.7008 40.7606 27.8127 41.2388 27.861L42.0461 27.9353C41.8044 27.6718 41.5674 27.3559 41.5018 27.2765C41.0048 26.6783 40.5266 26.0486 40.0815 25.3969C39.6354 24.7438 39.2223 24.0687 38.8566 23.3815C37.7863 21.3701 37.1255 19.1497 36.8162 16.8748C36.5079 14.6086 36.5476 12.2879 36.8823 10.0654C37.0385 9.02263 37.3259 7.75904 37.9333 6.77777ZM42.7119 27.8051C42.7674 27.7756 42.9663 27.6789 43.0512 27.6514L43.3997 27.5512C43.5203 27.4597 43.6403 27.3656 43.7593 27.2694C43.5518 27.3299 43.3407 27.3757 43.126 27.4052C42.9872 27.4241 42.8574 27.3427 42.8101 27.2165C42.7903 27.2038 42.7699 27.1885 42.7496 27.1717C42.4118 26.8899 41.7292 25.8603 41.7012 25.8125C41.2042 24.9737 40.814 24.0718 40.5261 23.1373C40.2397 22.2059 40.054 21.2429 39.9655 20.278C39.7041 17.443 40.4645 14.8049 41.8075 12.4395C42.832 10.6357 44.1948 8.99109 45.6995 7.54081C45.3622 7.24017 45.0021 6.95988 44.6262 6.70859C43.1749 5.73851 41.4824 5.19981 39.936 5.65051C39.2132 5.86212 38.6912 6.35047 38.3077 6.9609C37.7171 7.89995 37.45 9.12335 37.303 10.1275C36.9851 12.3108 36.9551 14.5892 37.271 16.8112C37.5859 19.0281 38.2451 21.1885 39.3022 23.1424C39.6644 23.8103 40.0723 24.466 40.5129 25.0998C40.9534 25.7342 41.4265 26.3466 41.9174 26.9286C42.0069 27.0344 42.4347 27.624 42.7119 27.8051ZM36.9963 4.79947C37.0497 4.67637 37.1016 4.55225 37.1509 4.42762C37.3544 3.91231 37.5151 3.38632 37.5899 2.85169C37.6215 2.62481 37.6362 2.35622 37.596 2.10187C37.5614 1.87907 37.4856 1.66542 37.3264 1.51535C37.2089 1.40446 37.1123 1.34596 37.0202 1.35156C36.9174 1.35766 36.8447 1.44668 36.7745 1.55147C36.5018 1.95893 36.3859 2.69704 36.4098 3.00735C36.4601 3.65593 36.6753 4.2567 36.9963 4.79947ZM27.8536 52.0956C27.8246 52.1078 27.7935 52.1155 27.7605 52.118C27.5977 52.1302 27.4558 52.0076 27.4441 51.8448C27.3957 51.1657 27.4288 50.4988 27.5255 49.8416C27.3535 48.4381 27.2391 47.0321 27.1719 45.623C27.0508 43.0745 27.0849 40.5158 27.2238 37.9469C27.3001 36.5017 27.4654 35.0646 27.6852 33.6352C27.9049 32.2088 28.1791 30.7901 28.4772 29.3795C28.5484 29.0422 28.612 28.1749 28.816 27.5558C28.9401 27.1799 29.1278 26.894 29.3613 26.7872C29.4727 26.7358 29.6014 26.7389 29.7398 26.8126C29.8563 26.8747 29.9901 27.0003 30.1259 27.1733C30.5893 27.7623 31.1331 28.9466 31.3127 29.3194C31.4088 29.0173 31.5095 28.7456 31.5431 28.4491C31.568 28.2319 31.5528 27.9994 31.4643 27.7252C31.1128 26.6341 30.2439 25.9697 29.2988 25.8171C28.3444 25.663 27.3164 26.0302 26.6663 26.9932C26.0777 27.8681 25.8564 28.8921 25.8066 29.9599C25.7303 31.5877 26.0482 33.3147 26.1194 34.8001C26.2771 37.7663 26.0197 40.7472 26.0019 43.7164C25.9943 44.981 26.0324 46.2436 26.1627 47.5021C26.2934 48.7489 26.5121 50.0507 26.9801 51.2364C27.2416 51.8988 27.5819 52.5244 28.0311 53.082C27.968 52.7534 27.909 52.4247 27.8536 52.0956ZM27.8032 48.5205C27.8922 48.1894 27.9955 47.8603 28.1094 47.5327C29.1843 44.4429 31.2572 41.5082 32.0798 38.4118C32.4893 36.8674 32.5651 35.3759 32.359 33.919C32.152 32.4555 31.6611 31.0266 30.9423 29.6135C30.8559 29.4446 30.4896 28.6108 30.1005 27.9485C29.9392 27.6743 29.7759 27.4297 29.6269 27.2857C29.5943 27.2542 29.5439 27.2211 29.5221 27.2068C29.4595 27.245 29.4107 27.3142 29.3644 27.3971C29.2825 27.5426 29.2199 27.7298 29.168 27.9317C29.0215 28.503 28.9661 29.1831 28.904 29.4705C28.6029 30.872 28.3241 32.2821 28.1018 33.6998C27.8805 35.115 27.7147 36.5383 27.6364 37.9692C27.4985 40.5239 27.4619 43.0684 27.586 45.6032C27.6333 46.5773 27.705 47.5494 27.8032 48.5205ZM29.9311 65.7408C29.9316 65.7922 29.9311 65.844 29.9311 65.8959C29.955 66.0073 29.9753 66.1197 29.9916 66.2332C30.0603 66.0292 30.1279 65.8247 30.193 65.6197C30.134 65.7077 30.0318 65.752 29.9311 65.7408ZM29.4091 64.4619C29.3517 63.7421 29.2418 63.0254 29.0744 62.3183C28.8313 61.2963 28.4971 60.2962 28.113 59.3094C27.2136 56.9979 26.0462 54.7581 25.1468 52.4817L22.6741 46.3906C22.6405 46.3067 22.2193 45.2929 21.9492 44.8615C21.9192 44.9383 21.8963 45.0309 21.8769 45.1291C21.8083 45.4801 21.7915 45.8967 21.7696 46.0417C21.6282 46.9792 21.5086 47.8974 21.4685 48.8242C21.4415 49.4347 21.4501 50.0492 21.5086 50.6743C21.6679 52.379 22.1155 54.0032 22.8058 55.5212C23.4956 57.0386 24.4275 58.4502 25.5533 59.7306C26.6129 60.9357 28.1364 62.33 29.0983 63.9069C29.2097 64.0896 29.314 64.2747 29.4091 64.4619ZM11.4549 21.2231C11.4915 21.3289 11.464 21.4469 11.3862 21.5263C11.2733 22.0797 11.23 22.6271 11.2422 23.0936C11.2636 23.8749 11.4584 24.5983 11.7357 25.2942C12.4092 26.984 13.5522 28.5208 13.9958 30.3083C14.0975 30.7189 14.1479 31.1334 14.1692 31.5501C14.217 32.4891 14.1118 33.4388 14.125 34.3784C14.1336 34.997 14.2155 35.6232 14.361 36.2341C14.4485 36.6009 14.5584 36.962 14.6896 37.313C14.9964 37.0836 15.3006 36.844 15.6073 36.5973C16.2233 36.1008 16.7915 35.615 17.2773 35.0448C17.5927 34.675 17.8725 34.2695 18.108 33.8015C18.6986 32.627 19.0267 31.3445 19.1539 30.0362C19.2821 28.7217 19.2078 27.3818 18.9952 26.0984C18.8039 24.9472 18.4707 23.761 17.9788 22.65C17.4895 21.5451 16.8434 20.5145 16.0244 19.6696C15.6063 19.2387 15.0742 18.7977 14.4867 18.6008C14.1179 18.4772 13.7267 18.4523 13.3304 18.6008C12.6956 18.8389 12.2337 19.3659 11.9061 20.0002C11.7092 20.3802 11.5612 20.7994 11.4549 21.2231ZM7.97896 21.8356C8.29893 22.4424 8.56904 23.0844 8.88443 23.6394C9.81788 25.2621 10.9095 26.7144 11.7433 28.3051C12.3054 29.3769 12.7515 30.5113 12.9555 31.8019C13.0842 32.6102 13.1931 33.3976 13.3787 34.1724C13.4591 34.5061 13.5537 34.8367 13.6702 35.1658C13.6443 34.9049 13.6295 34.6439 13.6265 34.384C13.6188 33.5818 13.6977 32.7714 13.6931 31.9662C13.6906 31.4483 13.6524 30.933 13.5283 30.4233C13.0974 28.6556 11.9686 27.1356 11.3089 25.4636C11.0148 24.7173 10.8108 23.9416 10.7905 23.1048C10.7793 22.6246 10.8241 22.064 10.9375 21.4947C10.9309 21.4861 10.9248 21.4769 10.9192 21.4673C10.8368 21.3238 10.7585 21.1743 10.6679 21.0339C10.615 20.9525 10.5585 20.8736 10.4919 20.8029C10.1145 20.4041 9.7782 20.3385 9.45315 20.4804C8.93378 20.7068 8.46171 21.3218 7.97896 21.8356ZM4.06915 21.9546C4.55343 22.0889 5.03669 22.2415 5.52453 22.3081C5.87705 22.3565 6.23262 22.3555 6.59329 22.2563C6.87561 22.1779 7.14013 21.9536 7.40312 21.6794C7.36904 21.6229 7.33445 21.5675 7.29935 21.512C6.99515 21.0395 6.63246 20.6203 6.14615 20.3405C5.75242 20.1142 5.40752 20.1299 5.11807 20.2922C4.63583 20.5623 4.30518 21.1905 4.12918 21.7491C4.10832 21.8152 4.08848 21.8839 4.06915 21.9546ZM2.77555 27.6962C3.21557 27.6189 3.65203 27.5945 4.08188 27.6163C3.67136 27.0319 3.42871 26.277 3.31985 25.4707C3.17488 24.3933 3.26491 23.2258 3.47398 22.2863C3.24914 22.2354 3.02379 22.1967 2.79641 22.1825C2.30501 22.151 1.85939 22.2664 1.52111 22.5198C1.18589 22.771 0.957992 23.1556 0.890845 23.6536C0.867445 23.8276 0.872025 24.0001 0.895425 24.171C0.919842 24.3485 0.963588 24.524 1.01802 24.697C1.19555 25.2591 1.47992 25.7906 1.807 26.3044C2.10968 26.7801 2.44846 27.2404 2.77555 27.6962ZM13.5242 37.4967C13.3625 37.3044 13.2231 37.0867 13.0908 36.8949C12.8115 36.49 12.5536 36.0723 12.3079 35.6471C11.9442 35.0163 11.608 34.3692 11.2702 33.7232C10.3225 31.9087 8.69571 29.9879 6.73369 28.9313C5.61253 28.3275 4.38098 28.0075 3.10569 28.1642C3.20234 28.3046 3.29645 28.4445 3.38649 28.5849C4.33978 30.0606 5.13435 31.5684 6.14207 32.924C6.79879 33.8071 7.54658 34.6246 8.4902 35.3256C8.94701 35.6644 9.43942 35.9538 9.95116 36.2081C10.7269 36.5932 11.5469 36.8979 12.3573 37.1701C12.574 37.2423 12.7917 37.3085 13.0115 37.3685C13.1814 37.4148 13.3523 37.4575 13.5242 37.4967ZM14.1357 37.2825C14.1102 37.2077 14.0853 37.1324 14.0614 37.0567C13.9907 37.0419 13.8828 36.99 13.7974 36.8552C13.6483 36.6192 13.4062 35.9563 13.3726 35.8755C13.1559 35.3495 13.0013 34.8215 12.8817 34.2878C12.7047 33.4978 12.6035 32.6966 12.4839 31.8736C12.3018 30.6329 11.8872 29.5392 11.3562 28.506C10.5377 26.9143 9.4501 25.4651 8.52682 23.8439C8.22618 23.323 7.96726 22.7232 7.66663 22.1504C7.35887 22.4399 7.04551 22.6652 6.72606 22.7487C6.29519 22.8621 5.87297 22.8611 5.45483 22.799C4.95275 22.7248 4.45779 22.5564 3.96029 22.4134C3.78021 23.297 3.71459 24.3882 3.86618 25.3929C3.99234 26.2281 4.26704 27.0044 4.77013 27.5304C4.81693 27.5802 4.84338 27.6418 4.84949 27.7049C5.58963 27.8371 6.30537 28.1011 6.98498 28.4623C9.04773 29.5595 10.7686 31.5612 11.7723 33.4592C12.1095 34.0966 12.4453 34.735 12.8085 35.3571C13.0481 35.7671 13.2999 36.17 13.572 36.5607C13.7307 36.7886 13.8956 37.0602 14.1102 37.2596C14.1189 37.2672 14.127 37.2749 14.1357 37.2825ZM44.3357 27.8631C44.9929 27.8971 45.6435 27.9302 46.2972 27.9297C47.0358 27.9292 47.7785 27.886 48.5395 27.7496C49.7461 27.5329 50.936 27.1305 52.082 26.6224C53.2363 26.1101 54.3467 25.491 55.3865 24.846C57.5179 23.5173 59.4006 22.0345 60.7324 20.2174C62.0646 18.3993 62.8404 16.2476 62.7793 13.6049C62.7753 13.4376 62.7702 13.2667 62.7646 13.0932C62.0544 13.2336 61.3672 13.5383 60.7883 13.9839C60.1163 14.5023 59.5517 15.128 59.0481 15.8066C58.282 16.8387 57.6558 17.9914 57.0108 19.079C56.203 20.4418 55.3555 21.744 54.3427 22.9099C53.6646 23.6908 52.9117 24.4101 52.0469 25.0454C51.3363 25.5673 50.5682 25.9712 49.768 26.3004C48.5823 26.7882 47.3243 27.1112 46.0744 27.4144L44.3357 27.8631ZM43.0874 26.7333C43.1433 26.7338 43.1998 26.7516 43.2481 26.7872C44.0386 26.6402 44.7711 26.2429 45.4558 25.7321C45.5393 25.6472 45.6217 25.5617 45.7036 25.4758C45.9259 25.196 46.1349 24.9162 46.3323 24.6496C47.8111 22.6485 48.7074 20.2378 48.9816 17.7564C49.2552 15.275 48.9073 12.7224 47.8996 10.4358C47.5115 9.5588 46.8446 8.63755 46.0118 7.83127C44.5366 9.26171 43.1998 10.8829 42.2012 12.6618C40.9173 14.9494 40.1949 17.4979 40.4635 20.2306C40.5551 21.16 40.7397 22.0874 41.0226 22.9827C41.3039 23.8749 41.6834 24.7356 42.1651 25.5353C42.1905 25.577 42.7796 26.4672 43.0874 26.7333ZM42.8885 26.8131C42.8834 26.8182 42.8783 26.8238 42.8737 26.8294C42.8783 26.8238 42.8834 26.8187 42.8885 26.8131Z" fill="#C09561"/>
</svg>
